# Project-owned low-poly coin pickup mesh
v 0 0 0.0400
v 0 0 -0.0400
v 0.500000 0.000000 0.0400
v 0.482963 0.129410 0.0400
v 0.433013 0.250000 0.0400
v 0.353553 0.353553 0.0400
v 0.250000 0.433013 0.0400
v 0.129410 0.482963 0.0400
v 0.000000 0.500000 0.0400
v -0.129410 0.482963 0.0400
v -0.250000 0.433013 0.0400
v -0.353553 0.353553 0.0400
v -0.433013 0.250000 0.0400
v -0.482963 0.129410 0.0400
v -0.500000 0.000000 0.0400
v -0.482963 -0.129410 0.0400
v -0.433013 -0.250000 0.0400
v -0.353553 -0.353553 0.0400
v -0.250000 -0.433013 0.0400
v -0.129410 -0.482963 0.0400
v -0.000000 -0.500000 0.0400
v 0.129410 -0.482963 0.0400
v 0.250000 -0.433013 0.0400
v 0.353553 -0.353553 0.0400
v 0.433013 -0.250000 0.0400
v 0.482963 -0.129410 0.0400
v 0.500000 0.000000 -0.0400
v 0.482963 0.129410 -0.0400
v 0.433013 0.250000 -0.0400
v 0.353553 0.353553 -0.0400
v 0.250000 0.433013 -0.0400
v 0.129410 0.482963 -0.0400
v 0.000000 0.500000 -0.0400
v -0.129410 0.482963 -0.0400
v -0.250000 0.433013 -0.0400
v -0.353553 0.353553 -0.0400
v -0.433013 0.250000 -0.0400
v -0.482963 0.129410 -0.0400
v -0.500000 0.000000 -0.0400
v -0.482963 -0.129410 -0.0400
v -0.433013 -0.250000 -0.0400
v -0.353553 -0.353553 -0.0400
v -0.250000 -0.433013 -0.0400
v -0.129410 -0.482963 -0.0400
v -0.000000 -0.500000 -0.0400
v 0.129410 -0.482963 -0.0400
v 0.250000 -0.433013 -0.0400
v 0.353553 -0.353553 -0.0400
v 0.433013 -0.250000 -0.0400
v 0.482963 -0.129410 -0.0400
vn 0 0 1
vn 0 0 -1
vn 0.991445 0.130526 0
vn 0.923880 0.382683 0
vn 0.793353 0.608761 0
vn 0.608761 0.793353 0
vn 0.382683 0.923880 0
vn 0.130526 0.991445 0
vn -0.130526 0.991445 0
vn -0.382683 0.923880 0
vn -0.608761 0.793353 0
vn -0.793353 0.608761 0
vn -0.923880 0.382683 0
vn -0.991445 0.130526 0
vn -0.991445 -0.130526 0
vn -0.923880 -0.382683 0
vn -0.793353 -0.608761 0
vn -0.608761 -0.793353 0
vn -0.382683 -0.923880 0
vn -0.130526 -0.991445 0
vn 0.130526 -0.991445 0
vn 0.382683 -0.923880 0
vn 0.608761 -0.793353 0
vn 0.793353 -0.608761 0
vn 0.923880 -0.382683 0
vn 0.991445 -0.130526 0
vt 0.5 0.5
vt 1.000000 0.500000
vt 0.982963 0.629410
vt 0.933013 0.750000
vt 0.853553 0.853553
vt 0.750000 0.933013
vt 0.629410 0.982963
vt 0.500000 1.000000
vt 0.370590 0.982963
vt 0.250000 0.933013
vt 0.146447 0.853553
vt 0.066987 0.750000
vt 0.017037 0.629410
vt 0.000000 0.500000
vt 0.017037 0.370590
vt 0.066987 0.250000
vt 0.146447 0.146447
vt 0.250000 0.066987
vt 0.370590 0.017037
vt 0.500000 0.000000
vt 0.629410 0.017037
vt 0.750000 0.066987
vt 0.853553 0.146447
vt 0.933013 0.250000
vt 0.982963 0.370590
g CoinPickupMesh
f 1/1/1 3/2/1 4/3/1
f 1/1/1 4/3/1 5/4/1
f 1/1/1 5/4/1 6/5/1
f 1/1/1 6/5/1 7/6/1
f 1/1/1 7/6/1 8/7/1
f 1/1/1 8/7/1 9/8/1
f 1/1/1 9/8/1 10/9/1
f 1/1/1 10/9/1 11/10/1
f 1/1/1 11/10/1 12/11/1
f 1/1/1 12/11/1 13/12/1
f 1/1/1 13/12/1 14/13/1
f 1/1/1 14/13/1 15/14/1
f 1/1/1 15/14/1 16/15/1
f 1/1/1 16/15/1 17/16/1
f 1/1/1 17/16/1 18/17/1
f 1/1/1 18/17/1 19/18/1
f 1/1/1 19/18/1 20/19/1
f 1/1/1 20/19/1 21/20/1
f 1/1/1 21/20/1 22/21/1
f 1/1/1 22/21/1 23/22/1
f 1/1/1 23/22/1 24/23/1
f 1/1/1 24/23/1 25/24/1
f 1/1/1 25/24/1 26/25/1
f 1/1/1 26/25/1 3/2/1
f 2/1/2 28/3/2 27/2/2
f 2/1/2 29/4/2 28/3/2
f 2/1/2 30/5/2 29/4/2
f 2/1/2 31/6/2 30/5/2
f 2/1/2 32/7/2 31/6/2
f 2/1/2 33/8/2 32/7/2
f 2/1/2 34/9/2 33/8/2
f 2/1/2 35/10/2 34/9/2
f 2/1/2 36/11/2 35/10/2
f 2/1/2 37/12/2 36/11/2
f 2/1/2 38/13/2 37/12/2
f 2/1/2 39/14/2 38/13/2
f 2/1/2 40/15/2 39/14/2
f 2/1/2 41/16/2 40/15/2
f 2/1/2 42/17/2 41/16/2
f 2/1/2 43/18/2 42/17/2
f 2/1/2 44/19/2 43/18/2
f 2/1/2 45/20/2 44/19/2
f 2/1/2 46/21/2 45/20/2
f 2/1/2 47/22/2 46/21/2
f 2/1/2 48/23/2 47/22/2
f 2/1/2 49/24/2 48/23/2
f 2/1/2 50/25/2 49/24/2
f 2/1/2 27/2/2 50/25/2
f 3/2/3 27/2/3 28/3/3 4/3/3
f 4/3/4 28/3/4 29/4/4 5/4/4
f 5/4/5 29/4/5 30/5/5 6/5/5
f 6/5/6 30/5/6 31/6/6 7/6/6
f 7/6/7 31/6/7 32/7/7 8/7/7
f 8/7/8 32/7/8 33/8/8 9/8/8
f 9/8/9 33/8/9 34/9/9 10/9/9
f 10/9/10 34/9/10 35/10/10 11/10/10
f 11/10/11 35/10/11 36/11/11 12/11/11
f 12/11/12 36/11/12 37/12/12 13/12/12
f 13/12/13 37/12/13 38/13/13 14/13/13
f 14/13/14 38/13/14 39/14/14 15/14/14
f 15/14/15 39/14/15 40/15/15 16/15/15
f 16/15/16 40/15/16 41/16/16 17/16/16
f 17/16/17 41/16/17 42/17/17 18/17/17
f 18/17/18 42/17/18 43/18/18 19/18/18
f 19/18/19 43/18/19 44/19/19 20/19/19
f 20/19/20 44/19/20 45/20/20 21/20/20
f 21/20/21 45/20/21 46/21/21 22/21/21
f 22/21/22 46/21/22 47/22/22 23/22/22
f 23/22/23 47/22/23 48/23/23 24/23/23
f 24/23/24 48/23/24 49/24/24 25/24/24
f 25/24/25 49/24/25 50/25/25 26/25/25
f 26/25/26 50/25/26 27/2/26 3/2/26
